<svg width="20" height="20" viewBox="0 0 20 20" fill="none" xmlns="http://www.w3.org/2000/svg">
<path d="M18.75 1.87305L13.7456 1.87307V0.627441C13.7456 0.282129 13.4659 0.00244141 13.1206 0.00244141C12.7753 0.00244141 12.4956 0.282129 12.4956 0.627441V1.87275H7.49563V0.627441C7.49563 0.282129 7.21594 0.00244141 6.87063 0.00244141C6.52531 0.00244141 6.24563 0.282129 6.24563 0.627441V1.87275H1.25C0.559687 1.87275 0 2.43244 0 3.12275V18.7478C0 19.438 0.559687 19.9978 1.25 19.9978H18.75C19.4403 19.9978 20 19.438 20 18.7478V3.12275C20 2.43273 19.4403 1.87305 18.75 1.87305ZM18.75 18.7478H1.25V3.12275H6.24563V3.75244C6.24563 4.09773 6.52531 4.37744 6.87063 4.37744C7.21594 4.37744 7.49563 4.09773 7.49563 3.75244V3.12307H12.4956V3.75275C12.4956 4.09807 12.7753 4.37775 13.1206 4.37775C13.4659 4.37775 13.7456 4.09807 13.7456 3.75275V3.12307H18.75V18.7478ZM14.375 9.99805H15.625C15.97 9.99805 16.25 9.71805 16.25 9.37305V8.12305C16.25 7.77805 15.97 7.49805 15.625 7.49805H14.375C14.03 7.49805 13.75 7.77805 13.75 8.12305V9.37305C13.75 9.71805 14.03 9.99805 14.375 9.99805ZM14.375 14.9977H15.625C15.97 14.9977 16.25 14.718 16.25 14.3727V13.1227C16.25 12.7777 15.97 12.4977 15.625 12.4977H14.375C14.03 12.4977 13.75 12.7777 13.75 13.1227V14.3727C13.75 14.7184 14.03 14.9977 14.375 14.9977ZM10.625 12.4977H9.375C9.03 12.4977 8.75 12.7777 8.75 13.1227V14.3727C8.75 14.718 9.03 14.9977 9.375 14.9977H10.625C10.97 14.9977 11.25 14.718 11.25 14.3727V13.1227C11.25 12.778 10.97 12.4977 10.625 12.4977ZM10.625 7.49805H9.375C9.03 7.49805 8.75 7.77805 8.75 8.12305V9.37305C8.75 9.71805 9.03 9.99805 9.375 9.99805H10.625C10.97 9.99805 11.25 9.71805 11.25 9.37305V8.12305C11.25 7.77773 10.97 7.49805 10.625 7.49805ZM5.625 7.49805H4.375C4.03 7.49805 3.75 7.77805 3.75 8.12305V9.37305C3.75 9.71805 4.03 9.99805 4.375 9.99805H5.625C5.97 9.99805 6.25 9.71805 6.25 9.37305V8.12305C6.25 7.77773 5.97 7.49805 5.625 7.49805ZM5.625 12.4977H4.375C4.03 12.4977 3.75 12.7777 3.75 13.1227V14.3727C3.75 14.718 4.03 14.9977 4.375 14.9977H5.625C5.97 14.9977 6.25 14.718 6.25 14.3727V13.1227C6.25 12.778 5.97 12.4977 5.625 12.4977Z" fill="#FF0080"/>
</svg>
