<svg width="35" height="35" viewBox="0 0 35 35" fill="none" xmlns="http://www.w3.org/2000/svg">
<path fill-rule="evenodd" clip-rule="evenodd" d="M29.3745 5.6364C26.2488 2.50667 22.0916 0.782228 17.6622 0.78064C8.5351 0.78064 1.10696 8.20799 1.10378 17.3375C1.1022 20.256 1.86518 23.1047 3.31412 25.6152L0.964844 34.1961L9.74268 31.8937C12.161 33.2133 14.8842 33.9079 17.6551 33.9088H17.6622C26.7878 33.9088 34.2168 26.4806 34.22 17.351C34.2215 12.9264 32.5011 8.76692 29.3745 5.63719V5.6364ZM17.6622 31.1125H17.6567C15.1875 31.1117 12.7652 30.4479 10.6518 29.1943L10.1492 28.8958L4.94012 30.2621L6.33032 25.1833L6.00321 24.6624C4.62572 22.4712 3.89767 19.9385 3.89926 17.3384C3.90244 9.75062 10.0761 3.57691 17.6679 3.57691C21.3438 3.5785 24.7991 5.01157 27.3976 7.61332C29.9962 10.2143 31.4261 13.6727 31.4245 17.3495C31.4213 24.938 25.2476 31.1117 17.6622 31.1117V31.1125ZM25.2111 20.8055C24.7974 20.5983 22.7634 19.5979 22.3838 19.4598C22.0043 19.3216 21.7289 19.2526 21.4533 19.667C21.1779 20.0815 20.3847 21.0135 20.1434 21.289C19.902 21.5653 19.6606 21.5995 19.2469 21.3922C18.8334 21.185 17.5003 20.7483 15.9196 19.339C14.6898 18.2418 13.8592 16.8874 13.618 16.4729C13.3766 16.0585 13.5926 15.8346 13.7989 15.629C13.9847 15.4432 14.2126 15.1455 14.4198 14.9041C14.6271 14.6627 14.6953 14.4897 14.8334 14.2141C14.9716 13.9378 14.9025 13.6966 14.7993 13.4893C14.6961 13.2821 13.8688 11.2456 13.5235 10.4175C13.1876 9.61088 12.8463 9.72045 12.593 9.70695C12.3516 9.69504 12.0761 9.69266 11.7998 9.69266C11.5235 9.69266 11.0757 9.79588 10.6962 10.2103C10.3167 10.6247 9.24806 11.6259 9.24806 13.6616C9.24806 15.6972 10.7304 17.6655 10.9376 17.9418C11.1448 18.2181 13.8553 22.3966 18.0052 24.1893C18.9922 24.6156 19.763 24.8705 20.364 25.061C21.3549 25.3762 22.2568 25.3318 22.9698 25.2254C23.7646 25.1063 25.4175 24.2242 25.7621 23.258C26.1066 22.2917 26.1066 21.4628 26.0035 21.2906C25.9003 21.1183 25.624 21.0143 25.2103 20.8071L25.2111 20.8055Z" fill="#25D366"/>
</svg>
